<svg width="24" height="24" viewBox="0 0 24 24" fill="none" xmlns="http://www.w3.org/2000/svg">
<path d="M6 23H2C1.73478 23 1.48043 22.8946 1.29289 22.7071C1.10536 22.5196 1 22.2652 1 22V16C1 15.7348 1.10536 15.4804 1.29289 15.2929C1.48043 15.1054 1.73478 15 2 15H6C6.26522 15 6.51957 15.1054 6.70711 15.2929C6.89464 15.4804 7 15.7348 7 16V22C7 22.2652 6.89464 22.5196 6.70711 22.7071C6.51957 22.8946 6.26522 23 6 23Z" fill="#686C73"/>
<path d="M14 23H10C9.73478 23 9.48043 22.8946 9.29289 22.7071C9.10536 22.5196 9 22.2652 9 22V10C9 9.73478 9.10536 9.48043 9.29289 9.29289C9.48043 9.10536 9.73478 9 10 9H14C14.2652 9 14.5196 9.10536 14.7071 9.29289C14.8946 9.48043 15 9.73478 15 10V22C15 22.2652 14.8946 22.5196 14.7071 22.7071C14.5196 22.8946 14.2652 23 14 23Z" fill="#686C73"/>
<path d="M22 23H18C17.7348 23 17.4804 22.8946 17.2929 22.7071C17.1054 22.5196 17 22.2652 17 22V2C17 1.73478 17.1054 1.48043 17.2929 1.29289C17.4804 1.10536 17.7348 1 18 1H22C22.2652 1 22.5196 1.10536 22.7071 1.29289C22.8946 1.48043 23 1.73478 23 2V22C23 22.2652 22.8946 22.5196 22.7071 22.7071C22.5196 22.8946 22.2652 23 22 23Z" fill="#686C73"/>
</svg>
